<svg xmlns="http://www.w3.org/2000/svg" xmlns:xlink="http://www.w3.org/1999/xlink" id="Layer_1" data-name="Layer 1" viewBox="0 0 199 57"><defs><style>.cls-1{fill:none;}.cls-2{clip-path:url(#clip-path);}.cls-3{fill:#6ab2b7;}</style><clipPath id="clip-path"><rect class="cls-1" width="198.54" height="56.58"></rect></clipPath></defs><title>crystal_logo_group2</title><g class="cls-2"><g id="Group"><path id="Vector" class="cls-3" d="M44.47,14.5,35.36.44,26.25,14.5l9.11,20.85Z"></path><path id="Vector_2" data-name="Vector 2" class="cls-3" d="M12.06,14.5,30.18,47.22,34.8,36.66l-9.61-22a.13.13,0,0,0,0-.05.36.36,0,0,1,0-.11v-.1a.18.18,0,0,1,0-.1.21.21,0,0,1,0-.1.06.06,0,0,1,0-.05L34.4,0H23.63L12.05,14.5Z"></path><path id="Vector_3" data-name="Vector 3" class="cls-3" d="M0,14.44,32.24,53.1,11,14.7a.53.53,0,0,1,0-.58L22.3,0H11.68Z"></path><path id="Vector_4" data-name="Vector 4" class="cls-3" d="M59.05,0H48.43L59.7,14.12a.53.53,0,0,1,0,.58L38.49,53.1,70.73,14.44Z"></path><path id="Vector_5" data-name="Vector 5" class="cls-3" d="M58.67,14.5,47.09,0H36.32L45.5,14.17l0,.05a.3.3,0,0,1,0,.1s0,.06,0,.1v.1a.43.43,0,0,1,0,.11.09.09,0,0,1,0,0L35.86,36.86l-5,11.52,4.55,8.21Z"></path></g><g id="Group_2" data-name="Group 2"><path id="Vector_6" data-name="Vector 6" class="cls-3" d="M147,49.65H77.21v.72H147Z"></path><g id="Group_3" data-name="Group 3"><path id="Vector_7" data-name="Vector 7" class="cls-3" d="M87.74,19.88l1.86.47a6.31,6.31,0,0,1-2.1,3.49,5.73,5.73,0,0,1-3.72,1.21,6.76,6.76,0,0,1-3.68-.92,5.8,5.8,0,0,1-2.16-2.71,9.51,9.51,0,0,1-.74-3.73A8.34,8.34,0,0,1,78,13.86a5.67,5.67,0,0,1,2.4-2.49,7,7,0,0,1,3.38-.85,5.76,5.76,0,0,1,3.53,1.07,5.52,5.52,0,0,1,2,3L87.52,15a4.25,4.25,0,0,0-1.4-2.22,3.77,3.77,0,0,0-2.34-.71,4.52,4.52,0,0,0-2.71.78A4.16,4.16,0,0,0,79.54,15a8.24,8.24,0,0,0-.44,2.69,8.56,8.56,0,0,0,.52,3.13,3.83,3.83,0,0,0,1.62,2,4.55,4.55,0,0,0,2.39.66,4,4,0,0,0,2.65-.89,4.58,4.58,0,0,0,1.46-2.68Z"></path><path id="Vector_8" data-name="Vector 8" class="cls-3" d="M97.36,24.83V10.75h6.21a8.49,8.49,0,0,1,2.82.37A3.2,3.2,0,0,1,108,12.46a3.93,3.93,0,0,1,.6,2.12,3.57,3.57,0,0,1-1,2.54,4.93,4.93,0,0,1-3,1.3,4.34,4.34,0,0,1,1.12.71A9.56,9.56,0,0,1,107.28,21l2.43,3.83h-2.34l-1.84-2.93-.75-1.14a9.53,9.53,0,0,0-.6-.81,3.69,3.69,0,0,0-.94-.93c-.16-.1-.29-.18-.41-.24a2,2,0,0,0-.43-.14l-1-.08H99.21v6.25H97.37ZM99.2,17h4a5.86,5.86,0,0,0,2-.26,2.08,2.08,0,0,0,1.08-.84,2.34,2.34,0,0,0,.37-1.29,2.08,2.08,0,0,0-.73-1.63,3.35,3.35,0,0,0-2.26-.65H99.2V17Z"></path><path id="Vector_9" data-name="Vector 9" class="cls-3" d="M120.86,24.83v-6l-5.41-8.12h2.26L120.47,15c.48.76,1,1.55,1.43,2.38.22-.38.45-.77.69-1.16s.48-.77.84-1.31l2.71-4.16h2.16l-5.58,8.13v6h-1.86Z"></path><path id="Vector_10" data-name="Vector 10" class="cls-3" d="M134.79,20.29l1.74-.16a3.81,3.81,0,0,0,.58,1.73,3.13,3.13,0,0,0,1.41,1.1,5.27,5.27,0,0,0,2.16.41,5.13,5.13,0,0,0,1.89-.31,2.58,2.58,0,0,0,1.18-.86,1.9,1.9,0,0,0,.28-.55,2.06,2.06,0,0,0,.11-.65,1.93,1.93,0,0,0-.38-1.17A2.71,2.71,0,0,0,142.5,19a23.75,23.75,0,0,0-2.49-.69c-.63-.16-1.17-.31-1.64-.46a7.46,7.46,0,0,1-1.07-.42,3.84,3.84,0,0,1-1.51-1.3,3.38,3.38,0,0,1-.49-1.77,3.53,3.53,0,0,1,.62-2A3.82,3.82,0,0,1,137.68,11a6.56,6.56,0,0,1,2.56-.48,8.18,8.18,0,0,1,1.45.12A6,6,0,0,1,143,11a3.74,3.74,0,0,1,1.86,1.5,4,4,0,0,1,.67,2.2l-1.78.14a2.86,2.86,0,0,0-1-2,3.73,3.73,0,0,0-2.45-.71,3.93,3.93,0,0,0-2.44.63,1.86,1.86,0,0,0-.77,1.49,1.63,1.63,0,0,0,.52,1.23,7.11,7.11,0,0,0,2.8,1,17.73,17.73,0,0,1,3.12.9,4.25,4.25,0,0,1,1.8,1.43,3.5,3.5,0,0,1,.44.94,3.62,3.62,0,0,1,.15,1.06,3.8,3.8,0,0,1-.63,2.1,4.24,4.24,0,0,1-1.83,1.54,6.43,6.43,0,0,1-2.73.56,8,8,0,0,1-3.2-.56,4.51,4.51,0,0,1-2-1.66A5.35,5.35,0,0,1,135,21.6a4.35,4.35,0,0,1-.21-1.33Z"></path><path id="Vector_11" data-name="Vector 11" class="cls-3" d="M157.49,24.83V12.42h-4.62V10.75H164v1.67h-4.64V24.83Z"></path><path id="Vector_12" data-name="Vector 12" class="cls-3" d="M169.81,24.83l5.37-14.08h2l5.74,14.08h-2.1l-1.65-4.27h-5.84l-1.54,4.27h-2Zm4-5.78h4.75l-1.46-3.89c-.42-1.14-.75-2.12-1-2.93-.09.44-.2.89-.31,1.35a14.05,14.05,0,0,1-.43,1.35l-1.55,4.13Z"></path><path id="Vector_13" data-name="Vector 13" class="cls-3" d="M189.76,24.83V10.75h1.86V23.18h6.91v1.65Z"></path></g><g id="Group_4" data-name="Group 4"><path id="Vector_14" data-name="Vector 14" class="cls-3" d="M82.54,40.93V39.68H87v3.93a8.09,8.09,0,0,1-2.12,1.24,6.66,6.66,0,0,1-3.78.26,5.32,5.32,0,0,1-1.35-.51,4.36,4.36,0,0,1-1.93-1.94,6,6,0,0,1-.65-2.83,6.68,6.68,0,0,1,.65-2.92,4.29,4.29,0,0,1,1.87-2,5.92,5.92,0,0,1,2.81-.65,5.47,5.47,0,0,1,2.08.37,3.5,3.5,0,0,1,1.45,1,4.67,4.67,0,0,1,.82,1.75l-1.28.36A4.46,4.46,0,0,0,85,36.5a2.45,2.45,0,0,0-1-.74,3.69,3.69,0,0,0-1.48-.28,5.62,5.62,0,0,0-.9.06,3.22,3.22,0,0,0-.77.24,3.12,3.12,0,0,0-1.14.76,3.77,3.77,0,0,0-.68,1.06,5.55,5.55,0,0,0-.4,2.14,5.19,5.19,0,0,0,.49,2.37,3.07,3.07,0,0,0,1.44,1.43,4.42,4.42,0,0,0,2,.46,4.86,4.86,0,0,0,1.76-.33,4.7,4.7,0,0,0,1.35-.76v-2H82.54Z"></path><path id="Vector_15" data-name="Vector 15" class="cls-3" d="M93.29,45.11V34.47H98a6.24,6.24,0,0,1,2.14.28,2.44,2.44,0,0,1,1.2,1,3,3,0,0,1,.45,1.61,2.69,2.69,0,0,1-.73,1.92,3.69,3.69,0,0,1-2.27,1,3.6,3.6,0,0,1,.85.53,7.18,7.18,0,0,1,1.17,1.41l1.84,2.9h-1.78L99.48,42.9,98.91,42a5.72,5.72,0,0,0-.45-.61,2.86,2.86,0,0,0-.71-.7,2.18,2.18,0,0,0-.31-.18,1.87,1.87,0,0,0-.33-.1l-.79-.06H94.69v4.73h-1.4Zm1.4-6h3A4.69,4.69,0,0,0,99.24,39a1.59,1.59,0,0,0,.82-.63,1.74,1.74,0,0,0,.28-1,1.56,1.56,0,0,0-.56-1.23,2.52,2.52,0,0,0-1.72-.49H94.69v3.52Z"></path><path id="Vector_16" data-name="Vector 16" class="cls-3" d="M107.69,39.91a5.76,5.76,0,0,1,1.43-4.13,4.8,4.8,0,0,1,3.67-1.51,5,5,0,0,1,2.65.7,4.64,4.64,0,0,1,1.81,2,6.78,6.78,0,0,1,0,5.73,4.54,4.54,0,0,1-1.87,2,4.65,4.65,0,0,1-1.22.49,5.54,5.54,0,0,1-1.35.16,5,5,0,0,1-2.69-.72,4.7,4.7,0,0,1-1.79-2,6,6,0,0,1-.62-2.66Zm1.46,0a4.24,4.24,0,0,0,1,3,3.39,3.39,0,0,0,2.59,1.1A3.47,3.47,0,0,0,115.4,43a4.51,4.51,0,0,0,1-3.16,5.49,5.49,0,0,0-.44-2.26A3.35,3.35,0,0,0,114.69,36a3.44,3.44,0,0,0-1.89-.53,3.62,3.62,0,0,0-2.57,1A4.56,4.56,0,0,0,109.15,39.94Z"></path><path id="Vector_17" data-name="Vector 17" class="cls-3" d="M130.8,34.46h1.41V40.6a7.21,7.21,0,0,1-.36,2.54,3.18,3.18,0,0,1-1.31,1.52,4.59,4.59,0,0,1-2.49.6,5,5,0,0,1-2.44-.51,2.93,2.93,0,0,1-1.35-1.49,7,7,0,0,1-.42-2.66V34.46h1.4v6.13a6.26,6.26,0,0,0,.25,2,2.08,2.08,0,0,0,.89,1,3.22,3.22,0,0,0,1.55.36,2.9,2.9,0,0,0,2.2-.71,4,4,0,0,0,.67-2.71Z"></path><path id="Vector_18" data-name="Vector 18" class="cls-3" d="M138.68,45.11V34.47h4a9.15,9.15,0,0,1,1.62.1,3,3,0,0,1,1.31.51,2.54,2.54,0,0,1,.86,1,3.4,3.4,0,0,1,.24.68,3.19,3.19,0,0,1,.09.77,3.31,3.31,0,0,1-.86,2.29,4.16,4.16,0,0,1-3.14.95h-2.72v4.33h-1.41Zm1.41-5.58h2.75a3,3,0,0,0,1.93-.51,1.81,1.81,0,0,0,.59-1.44,1.86,1.86,0,0,0-.34-1.14,1.54,1.54,0,0,0-.89-.62,6.14,6.14,0,0,0-1.31-.09H140.1v3.81Z"></path></g></g></g></svg>